#!OML:ASF X:\für Bonn\!DataBase\2005_08_12_Daniel\c3d\Daniel.ASF
:FULLY-SPECIFIED
:DEGREES
3083
root -16.7121 17.3188 28.5823 -902.262 7.50103 -176.571
lowerback 14.7494 -3.70651 0.0524762
upperback 3.914 -4.44083 0.269657
thorax -4.08517 -2.00466 1.03504
lowerneck -0.258035 0.611822 -4.80427
upperneck 21.3868 1.57051 6.57819
head 6.4196 1.49046 3.08438
rclavicle 1.20066e-013 -1.94809e-014
rhumerus -39.9344 -31.0066 -63.3255
rradius 13.8755
rwrist 36.6858
rhand -19.4011 17.276
rfingers 7.12502
rthumb 6.91796 -12.591
lclavicle 1.20066e-013 -1.94809e-014
lhumerus -20.6791 21.1036 64.9395
lradius 29.2038
lwrist -10.7928
lhand -15.7068 -7.73244
lfingers 7.12502
lthumb 10.483 21.9862
rfemur -24.5496 13.247 18.443
rtibia 23.6268
rfoot -20.2031 -24.4243
rtoes -3.23535
lfemur 11.2856 0.984646 -18.0054
ltibia 24.8742
lfoot -35.3988 19.1518
ltoes -10.1648
3084
root -16.6734 17.3063 28.5032 -902.105 8.11588 -176.512
lowerback 14.7568 -3.74732 0.161165
upperback 3.88653 -4.47986 0.338407
thorax -4.12053 -2.02632 1.05489
lowerneck -0.280292 0.690658 -4.85781
upperneck 21.4002 1.67968 6.5328
head 6.42146 1.53094 3.08429
rclavicle 4.47266e-015 -5.56597e-015
rhumerus -40.1255 -31.1511 -63.1877
rradius 13.8839
rwrist 36.9874
rhand -19.3932 17.1256
rfingers 7.12502
rthumb 6.92564 -12.7412
lclavicle 4.47266e-015 -5.56597e-015
lhumerus -21.1259 21.91 64.6828
lradius 28.8457
lwrist -11.2608
lhand -15.4047 -7.71607
lfingers 7.12502
lthumb 10.7744 21.9876
rfemur -24.6942 12.1857 18.8698
rtibia 23.8623
rfoot -19.4144 -24.0616
rtoes -2.69065
lfemur 11.6316 1.21312 -17.8768
ltibia 24.7098
lfoot -35.6444 19.2742
ltoes -10.224
3085
root -16.6326 17.2933 28.4223 -901.957 8.72369 -176.451
lowerback 14.7526 -3.79308 0.257247
upperback 3.88232 -4.52393 0.418996
thorax -4.12305 -2.04952 1.09332
lowerneck -0.323011 0.77104 -4.97122
upperneck 21.3928 1.77984 6.55367
head 6.41897 1.56602 3.11496
rclavicle -6.14245e-014 2.34566e-014
rhumerus -40.2422 -31.2514 -63.1063
rradius 13.8639
rwrist 37.1749
rhand -19.453 17.0465
rfingers 7.12502
rthumb 6.86783 -12.8221
lclavicle -6.14245e-014 2.34566e-014
lhumerus -21.568 22.72 64.4779
lradius 28.4654
lwrist -11.6456
lhand -15.2583 -7.63576
lfingers 7.12502
lthumb 10.9156 22.0605
rfemur -24.853 10.9135 19.4119
rtibia 24.1744
rfoot -18.5623 -23.5131
rtoes -2.22154
lfemur 11.987 1.47739 -17.7268
ltibia 24.5544
lfoot -35.8262 19.4058
ltoes -10.3411
3086
root -16.5902 17.2802 28.339 -901.807 9.34359 -176.376
lowerback 14.7448 -3.82841 0.352558
upperback 3.87175 -4.55472 0.504322
thorax -4.1301 -2.06641 1.13481
lowerneck -0.368532 0.831876 -5.0221
upperneck 21.4186 1.86271 6.51787
head 6.43024 1.59496 3.11695
rclavicle -6.65929e-015 1.11319e-014
rhumerus -40.3625 -31.2082 -63.12
rradius 13.8955
rwrist 37.208
rhand -19.5041 16.9866
rfingers 7.12502
rthumb 6.81859 -12.8836
lclavicle -6.65929e-015 1.11319e-014
lhumerus -22.1036 23.5367 64.2885
lradius 28.1293
lwrist -12.0364
lhand -15.1642 -7.56925
lfingers 7.12502
lthumb 11.0064 22.1222
rfemur -25.0286 9.58483 20.0176
rtibia 24.5498
rfoot -17.649 -22.8006
rtoes -2.27461
lfemur 12.3286 1.77508 -17.5549
ltibia 24.4275
lfoot -35.9527 19.5463
ltoes -10.5391
3087
root -16.545 17.2669 28.2546 -901.652 9.94589 -176.298
lowerback 14.7596 -3.86791 0.450938
upperback 3.84655 -4.59165 0.581705
thorax -4.16557 -2.08649 1.16955
lowerneck -0.395309 0.898234 -5.10331
upperneck 21.4281 1.94062 6.564
head 6.43142 1.62538 3.14966
rclavicle -4.99943e-014 2.26615e-014
rhumerus -40.4753 -31.144 -63.1877
rradius 13.9169
rwrist 37.1835
rhand -19.5527 16.9568
rfingers 7.12502
rthumb 6.77166 -12.9149
lclavicle -4.99943e-014 2.26615e-014
lhumerus -22.7461 24.2082 64.0965
lradius 27.8621
lwrist -12.3054
lhand -15.1403 -7.41442
lfingers 7.12502
lthumb 11.0294 22.2758
rfemur -25.225 8.29531 20.6396
rtibia 24.988
rfoot -16.7382 -22.0146
rtoes -2.838
lfemur 12.6672 2.08798 -17.3527
ltibia 24.3121
lfoot -36.0576 19.6089
ltoes -10.7225
3088
root -16.4983 17.2538 28.1674 -901.488 10.5404 -176.214
lowerback 14.7781 -3.91971 0.527282
upperback 3.82287 -4.64636 0.676204
thorax -4.19792 -2.11497 1.23786
lowerneck -0.525095 0.976181 -5.18628
upperneck 21.5157 2.0314 6.65487
head 6.47369 1.66741 3.20184
rclavicle -3.84648e-014 7.95139e-016
rhumerus -40.5972 -31.2042 -63.1693
rradius 13.9057
rwrist 37.3148
rhand -19.594 17.077
rfingers 7.12502
rthumb 6.73179 -12.796
lclavicle -3.84648e-014 7.95139e-016
lhumerus -23.5375 24.8935 63.9192
lradius 27.7099
lwrist -12.5365
lhand -15.1882 -7.24041
lfingers 7.12502
lthumb 10.9832 22.4523
rfemur -25.4315 7.11052 21.2401
rtibia 25.4681
rfoot -15.9804 -21.1342
rtoes -3.65292
lfemur 12.9978 2.45897 -17.1193
ltibia 24.2262
lfoot -36.1462 19.6224
ltoes -10.9848
3089
root -16.4492 17.2418 28.0776 -901.31 11.1436 -176.134
lowerback 14.788 -3.95321 0.589465
upperback 3.80118 -4.67891 0.770392
thorax -4.22266 -2.13244 1.30914
lowerneck -0.676059 1.03578 -5.21882
upperneck 21.5974 2.09291 6.74365
head 6.51995 1.69872 3.24363
rclavicle 3.4191e-014 3.18055e-015
rhumerus -40.5835 -30.8246 -63.51
rradius 14.0005
rwrist 36.8405
rhand -19.5351 17.1728
rfingers 7.12502
rthumb 6.78859 -12.6983
lclavicle 3.4191e-014 3.18055e-015
lhumerus -24.3434 25.544 63.7783
lradius 27.5756
lwrist -12.8228
lhand -15.2889 -6.97543
lfingers 7.12502
lthumb 10.8861 22.7224
rfemur -25.6623 6.09455 21.7976
rtibia 25.9951
rfoot -15.3436 -20.2481
rtoes -4.1161
lfemur 13.3193 2.87612 -16.8595
ltibia 24.1513
lfoot -36.1485 19.5514
ltoes -11.1045
3090
root -16.3981 17.2299 27.9858 -901.11 11.747 -176.05
lowerback 14.8051 -3.9841 0.661488
upperback 3.75707 -4.70923 0.852582
thorax -4.27677 -2.14966 1.36362
lowerneck -0.849844 1.09491 -5.18
upperneck 21.71 2.1543 6.81919
head 6.58118 1.73606 3.2706
rclavicle -7.196e-014 2.10712e-014
rhumerus -40.5976 -30.4416 -63.8958
rradius 14.0921
rwrist 36.362
rhand -19.5471 17.2992
rfingers 7.12502
rthumb 6.77702 -12.5723
lclavicle -7.196e-014 2.10712e-014
lhumerus -25.22 26.1194 63.6215
lradius 27.47
lwrist -13.0717
lhand -15.4172 -6.71203
lfingers 7.12502
lthumb 10.7623 22.9923
rfemur -25.9167 5.16852 22.3424
rtibia 26.5452
rfoot -14.6963 -19.3424
rtoes -3.94123
lfemur 13.6121 3.32472 -16.5847
ltibia 24.1153
lfoot -36.1116 19.469
ltoes -11.4685
3091
root -16.3445 17.2193 27.8908 -900.896 12.3414 -175.966
lowerback 14.786 -4.01943 0.693055
upperback 3.72646 -4.7492 0.96529
thorax -4.29093 -2.1712 1.47114
lowerneck -1.05477 1.15884 -5.14024
upperneck 21.8501 2.22919 6.8604
head 6.65671 1.77776 3.28856
rclavicle -9.74045e-015 1.59028e-014
rhumerus -40.5506 -29.9395 -64.3615
rradius 14.2305
rwrist 35.7337
rhand -19.4855 17.4601
rfingers 7.12502
rthumb 6.83651 -12.4095
lclavicle -9.74045e-015 1.59028e-014
lhumerus -26.0775 26.8269 63.5001
lradius 27.2964
lwrist -13.4656
lhand -15.5859 -6.47753
lfingers 7.12502
lthumb 10.5996 23.2352
rfemur -26.1684 4.39986 22.851
rtibia 27.1158
rfoot -14.1806 -18.5077
rtoes -3.34071
lfemur 13.8921 3.74009 -16.3131
ltibia 24.1083
lfoot -36.0539 19.3758
ltoes -11.6073
3092
root -16.2891 17.2079 27.7939 -900.668 12.9391 -175.847
lowerback 14.7694 -4.0528 0.778904
upperback 3.68292 -4.78044 1.06114
thorax -4.32614 -2.18915 1.53011
lowerneck -1.19521 1.22439 -4.97008
upperneck 21.9336 2.30568 6.83373
head 6.70565 1.82382 3.25951
rclavicle -3.68746e-014 1.59028e-015
rhumerus -40.4986 -29.2953 -64.9687
rradius 14.403
rwrist 34.8755
rhand -19.3571 17.6255
rfingers 7.12502
rthumb 6.96048 -12.2401
lclavicle -3.68746e-014 1.59028e-015
lhumerus -26.9598 27.3448 63.3594
lradius 27.157
lwrist -13.7047
lhand -15.6734 -6.22648
lfingers 7.12502
lthumb 10.5152 23.4905
rfemur -26.4068 3.67546 23.3974
rtibia 27.6768
rfoot -13.6928 -17.6513
rtoes -3.09903
lfemur 14.134 4.17206 -16.0037
ltibia 24.1698
lfoot -35.9166 19.3262
ltoes -12.1099
3093
root -16.2313 17.1987 27.6943 -900.442 13.5429 -175.761
lowerback 14.7123 -4.07413 0.815412
upperback 3.64825 -4.80373 1.16138
thorax -4.32567 -2.20319 1.61639
lowerneck -1.26559 1.28878 -4.8066
upperneck 21.9839 2.38398 6.78449
head 6.73219 1.86786 3.22215
rclavicle -2.48481e-015 -1.59028e-014
rhumerus -40.4956 -28.9278 -65.3709
rradius 14.5122
rwrist 34.3243
rhand -19.208 17.7988
rfingers 7.12502
rthumb 7.10442 -12.062
lclavicle -2.48481e-015 -1.59028e-014
lhumerus -27.8199 27.988 63.2311
lradius 26.9559
lwrist -14.0872
lhand -15.7597 -6.06454
lfingers 7.12502
lthumb 10.432 23.6566
rfemur -26.6181 3.09069 23.879
rtibia 28.2182
rfoot -13.3453 -16.77
rtoes -2.9772
lfemur 14.3487 4.62788 -15.7111
ltibia 24.2976
lfoot -35.7704 19.2379
ltoes -12.3714
3094
root -16.171 17.1918 27.5932 -900.203 14.1612 -175.641
lowerback 14.6501 -4.09519 0.881286
upperback 3.6076 -4.82239 1.26688
thorax -4.33081 -2.21523 1.6909
lowerneck -1.26623 1.36002 -4.56233
upperneck 22.0235 2.49004 6.60766
head 6.74548 1.92166 3.12952
rclavicle 4.24902e-014 -1.86858e-014
rhumerus -40.4804 -28.4417 -65.8786
rradius 14.6783
rwrist 33.6063
rhand -19.0687 17.9384
rfingers 7.12502
rthumb 7.23888 -11.9178
lclavicle 4.24902e-014 -1.86858e-014
lhumerus -28.7213 28.7216 63.0657
lradius 26.7434
lwrist -14.6191
lhand -15.7943 -6.0252
lfingers 7.12502
lthumb 10.3985 23.6977
rfemur -26.7971 2.6283 24.3829
rtibia 28.7336
rfoot -13.0846 -15.8216
rtoes -3.14376
lfemur 14.5339 5.15669 -15.3514
ltibia 24.4919
lfoot -35.4806 19.1534
ltoes -12.9562
3095
root -16.108 17.1884 27.4897 -899.969 14.7806 -175.533
lowerback 14.564 -4.10734 0.964562
upperback 3.57961 -4.82755 1.35649
thorax -4.31279 -2.22065 1.73434
lowerneck -1.17056 1.4311 -4.3369
upperneck 21.9536 2.58967 6.43435
head 6.70693 1.96762 3.03556
rclavicle -4.36332e-014 7.95139e-015
rhumerus -40.5406 -28.2397 -66.1954
rradius 14.8229
rwrist 33.1629
rhand -18.9008 18.0951
rfingers 7.12502
rthumb 7.40093 -11.7554
lclavicle -4.36332e-014 7.95139e-015
lhumerus -29.6395 29.5366 62.8815
lradius 26.5566
lwrist -15.2118
lhand -15.7403 -6.04439
lfingers 7.12502
lthumb 10.4507 23.6759
rfemur -26.9309 2.23516 24.8592
rtibia 29.2091
rfoot -12.885 -14.8372
rtoes -3.11028
lfemur 14.6806 5.72864 -14.9713
ltibia 24.7655
lfoot -35.1781 18.9988
ltoes -13.4133
3096
root -16.042 17.1866 27.3852 -899.761 15.4121 -175.43
lowerback 14.5131 -4.12481 1.02668
upperback 3.5486 -4.84154 1.4463
thorax -4.31492 -2.22978 1.79398
lowerneck -1.0872 1.52541 -4.10164
upperneck 21.9487 2.73325 6.22881
head 6.6905 2.03574 2.93438
rclavicle 1.01877e-014 -3.18055e-015
rhumerus -40.6168 -28.0243 -66.5096
rradius 14.9925
rwrist 32.7346
rhand -18.7316 18.2093
rfingers 7.12502
rthumb 7.56424 -11.6355
lclavicle 1.01877e-014 -3.18055e-015
lhumerus -30.6272 30.5598 62.5938
lradius 26.3417
lwrist -16.0308
lhand -15.5665 -6.17206
lfingers 7.12502
lthumb 10.6183 23.5397
rfemur -26.9986 1.97525 25.3127
rtibia 29.6487
rfoot -12.7362 -13.9454
rtoes -3.31581
lfemur 14.8199 6.33209 -14.5806
ltibia 25.1108
lfoot -34.8076 18.8696
ltoes -14.0268
3097
root -15.9734 17.1849 27.28 -899.55 16.0431 -175.289
lowerback 14.453 -4.13862 1.13083
upperback 3.53093 -4.84297 1.5399
thorax -4.30148 -2.23239 1.83064
lowerneck -0.96385 1.62183 -3.86831
upperneck 21.8849 2.87937 6.00425
head 6.649 2.10141 2.8249
rclavicle 1.50579e-014 -8.34896e-015
rhumerus -40.7536 -27.9512 -66.7454
rradius 15.2045
rwrist 32.4217
rhand -18.6338 18.3156
rfingers 7.12502
rthumb 7.65865 -11.5257
lclavicle 1.50579e-014 -8.34896e-015
lhumerus -31.6402 31.6372 62.2979
lradius 26.1602
lwrist -16.9012
lhand -15.3842 -6.35273
lfingers 7.12502
lthumb 10.7942 23.3499
rfemur -27.0233 1.80139 25.7963
rtibia 30.0539
rfoot -12.628 -13.1729
rtoes -3.64509
lfemur 14.9333 6.99692 -14.1039
ltibia 25.5145
lfoot -34.2981 18.722
ltoes -14.8653
